<svg width="110" height="40" viewBox="0 0 110 40" fill="none" xmlns="http://www.w3.org/2000/svg">
<path d="M97.0614 17.5453C97.2308 18.2385 97.431 18.9857 97.6622 19.7867C97.9086 20.5879 98.1783 21.4123 98.4709 22.2596C98.7637 23.1069 99.0794 23.9543 99.4184 24.8017C99.7572 25.649 100.112 26.4654 100.481 27.251C101.067 25.6333 101.576 24.0313 102.007 22.4444C102.438 20.8576 102.846 19.2245 103.231 17.5453H105.45C104.896 19.81 104.279 21.9899 103.601 24.0852C102.923 26.1651 102.192 28.1141 101.406 29.9319C101.098 30.6251 100.774 31.2183 100.435 31.7113C100.112 32.2197 99.7498 32.6357 99.3491 32.9593C98.9487 33.2827 98.494 33.5214 97.9856 33.6757C97.4926 33.8297 96.9302 33.9067 96.2986 33.9067C96.1292 33.9067 95.9521 33.8913 95.7671 33.8605C95.5823 33.8451 95.3975 33.8143 95.2127 33.7681C95.0431 33.7373 94.8814 33.6988 94.7274 33.6526C94.5888 33.6064 94.4887 33.5679 94.4269 33.5371L94.8198 31.8039C94.9892 31.8809 95.205 31.9502 95.4668 32.0118C95.744 32.0888 96.0137 32.1271 96.2757 32.1271C97.123 32.1271 97.7854 31.9346 98.263 31.5494C98.7406 31.1798 99.172 30.5712 99.5573 29.724C98.5866 27.8751 97.6776 25.9187 96.8301 23.8542C95.9983 21.7744 95.3049 19.6713 94.7503 17.5453H97.0614ZM54.4476 17.2447C56.0652 17.2447 57.3054 17.7531 58.1682 18.7699C59.0311 19.7713 59.4623 21.3044 59.4623 23.3689V23.7387C59.4623 23.8773 59.4546 24.0082 59.4392 24.1314H51.2123C51.3047 25.3792 51.6666 26.3268 52.2982 26.974C52.9298 27.621 53.9161 27.9444 55.2565 27.9444C56.0113 27.9444 56.643 27.8828 57.1514 27.7596C57.6752 27.621 58.0681 27.4899 58.3299 27.3667L58.6304 29.1692C58.3684 29.3078 57.9062 29.4543 57.2438 29.6083C56.5968 29.7623 55.8571 29.8395 55.0253 29.8395C53.9777 29.8395 53.0686 29.6853 52.2982 29.3771C51.5434 29.0537 50.9194 28.6146 50.4264 28.0599C49.9336 27.5053 49.5638 26.8506 49.3172 26.0956C49.0862 25.3253 48.9705 24.4858 48.9705 23.5768C48.9705 22.5137 49.1245 21.5893 49.4327 20.8036C49.7407 20.0025 50.149 19.3401 50.6574 18.8163C51.1658 18.2925 51.7515 17.8996 52.4139 17.6377C53.0763 17.3758 53.7544 17.2447 54.4476 17.2447ZM88.6076 17.2447C89.4705 17.2447 90.1945 17.3604 90.7799 17.5915C91.3807 17.8072 91.8584 18.123 92.2128 18.539C92.5824 18.9395 92.8444 19.4248 92.9984 19.9947C93.1526 20.5494 93.2294 21.1658 93.2294 21.8437V29.3542C93.0446 29.385 92.7826 29.4312 92.4438 29.4928C92.1202 29.539 91.7506 29.5854 91.3345 29.6316C90.9185 29.6778 90.464 29.7161 89.9712 29.7469C89.4936 29.7931 89.016 29.8164 88.5383 29.8164C87.8605 29.8164 87.2364 29.7469 86.6664 29.6083C86.0963 29.4697 85.6033 29.2539 85.1873 28.9613C84.7715 28.6531 84.4479 28.2527 84.2167 27.7596C83.9857 27.2666 83.8702 26.6735 83.8702 25.9803C83.8702 25.3179 84.0011 24.7476 84.2629 24.2702C84.5403 23.7926 84.9101 23.4074 85.3723 23.1148C85.8345 22.822 86.3738 22.6061 86.99 22.4675C87.6062 22.3289 88.2532 22.2596 88.931 22.2596C89.1466 22.2596 89.3702 22.275 89.6014 22.3058C89.8324 22.3212 90.0482 22.352 90.2484 22.3982C90.464 22.429 90.649 22.4598 90.803 22.4906C90.957 22.5214 91.0648 22.5445 91.1264 22.5599V21.9591C91.1264 21.6047 91.0879 21.2581 91.0109 20.9192C90.9339 20.5648 90.7953 20.2566 90.5949 19.9947C90.3947 19.7175 90.1175 19.5019 89.7631 19.3478C89.4243 19.1784 88.9772 19.0935 88.4226 19.0935C87.714 19.0935 87.0901 19.1474 86.5509 19.2552C86.027 19.3477 85.6343 19.448 85.3723 19.5558L85.118 17.7763C85.3952 17.653 85.8576 17.5376 86.5047 17.4297C87.1517 17.3064 87.8528 17.2447 88.6076 17.2447ZM49.2309 15.4884H44.1929V29.5621H41.9514V15.4884H36.9136V13.5473H49.2309V15.4884ZM66.9172 17.2909C67.1022 17.2909 67.3103 17.3063 67.5413 17.3371C67.7879 17.3525 68.0266 17.3835 68.2576 17.4297C68.4889 17.4605 68.6968 17.4989 68.8816 17.5451C69.082 17.5759 69.2283 17.6069 69.3207 17.6377L68.9511 19.5094C68.7815 19.4478 68.4966 19.3785 68.0959 19.3014C67.7107 19.209 67.2102 19.1629 66.594 19.1629C66.1934 19.1629 65.7928 19.209 65.3921 19.3014C65.0071 19.3784 64.7528 19.4324 64.6296 19.4632V29.5621H62.4804V18.0536C62.9886 17.8687 63.6205 17.6991 64.3753 17.5451C65.1301 17.3756 65.9776 17.2909 66.9172 17.2909ZM75.7163 13.3855C77.9656 13.3855 79.691 13.817 80.8927 14.6797C82.1097 15.5271 82.7182 16.7981 82.7182 18.4928C82.7182 19.4171 82.5488 20.2106 82.2098 20.873C81.8864 21.5201 81.4088 22.0515 80.7772 22.4675C80.1607 22.8682 79.4059 23.1608 78.5125 23.3456C77.6189 23.5306 76.6097 23.623 75.4851 23.623H73.7055V29.5621H71.4639V13.7784C72.0958 13.6244 72.7967 13.5241 73.5669 13.4779C74.3527 13.4163 75.0691 13.3855 75.7163 13.3855ZM89.1161 23.9928C88.7924 23.9928 88.4459 24.0159 88.0761 24.0621C87.7219 24.1083 87.3904 24.2084 87.0824 24.3624C86.7896 24.5012 86.5432 24.7014 86.3427 24.9634C86.1425 25.2098 86.0424 25.5412 86.0424 25.9572C86.0424 26.7274 86.2891 27.2664 86.7819 27.5746C87.2749 27.8674 87.9452 28.0137 88.7924 28.0137C89.3008 28.0137 89.7477 28.0063 90.1329 27.9909C90.5335 27.9601 90.8646 27.9136 91.1264 27.852V24.2702C90.9724 24.193 90.7181 24.1314 90.3639 24.0852C90.0249 24.0236 89.6091 23.9928 89.1161 23.9928ZM54.4243 19.0705C53.9315 19.0705 53.4923 19.1706 53.1071 19.3708C52.7373 19.5557 52.4216 19.8022 52.1596 20.1103C51.8978 20.4184 51.6899 20.7728 51.5357 21.1734C51.3971 21.5739 51.3047 21.9822 51.2585 22.3982H57.2207C57.2361 21.4276 56.9895 20.6342 56.481 20.0179C55.988 19.3863 55.3025 19.0705 54.4243 19.0705ZM75.9009 15.3498C74.9459 15.3498 74.2139 15.373 73.7055 15.4192V21.7049H75.3927C76.1629 21.7049 76.8561 21.6587 77.4723 21.5663C78.0886 21.4585 78.6047 21.2889 79.0207 21.0578C79.4521 20.8113 79.7832 20.4801 80.0144 20.0641C80.2454 19.6482 80.3612 19.1166 80.3612 18.4695C80.3612 17.8533 80.238 17.3449 79.9913 16.9444C79.7603 16.5438 79.4367 16.228 79.0207 15.9969C78.6201 15.7504 78.1504 15.5808 77.6112 15.4884C77.0719 15.3959 76.5019 15.3498 75.9009 15.3498Z" fill="url(#paint0_linear_3030_3107)"/>
<path fill-rule="evenodd" clip-rule="evenodd" d="M10.8784 7.64734H15.1136V29.6953H10.8784V7.64734Z" fill="url(#paint1_linear_3030_3107)"/>
<path fill-rule="evenodd" clip-rule="evenodd" d="M4.40088 5.28052H24.7898C28.9395 5.28052 32.3035 8.64443 32.3035 12.794C32.3035 17.4502 28.5287 21.2248 23.8726 21.2248H23.0855V29.6952H18.8504V16.9896H23.8726C26.1897 16.9896 28.0683 15.1112 28.0683 12.794C28.0683 10.9835 26.6004 9.51572 24.7898 9.51572H4.40088V5.28052Z" fill="url(#paint2_linear_3030_3107)"/>
<path d="M24.79 5.28052C28.9395 5.28056 32.3033 8.64447 32.3033 12.794C32.3033 13.6958 32.1611 14.5642 31.8989 15.3788C31.9191 15.0785 31.9297 14.8236 31.9297 14.6228C31.9297 11.8022 28.8066 9.51576 24.9542 9.51574L24.9487 9.51961C24.8961 9.51708 24.8433 9.51574 24.79 9.51574H4.40088V5.28052H24.79Z" fill="url(#paint3_linear_3030_3107)"/>
<defs>
<linearGradient id="paint0_linear_3030_3107" x1="36.5438" y1="20.9885" x2="111.283" y2="20.9885" gradientUnits="userSpaceOnUse">
<stop stop-color="#F9F9F9"/>
<stop offset="1" stop-color="#E6E6E6"/>
</linearGradient>
<linearGradient id="paint1_linear_3030_3107" x1="12.996" y1="-2.31782" x2="12.996" y2="29.8198" gradientUnits="userSpaceOnUse">
<stop stop-color="#F2FF53" stop-opacity="0"/>
<stop offset="1" stop-color="#F2FF53"/>
</linearGradient>
<linearGradient id="paint2_linear_3030_3107" x1="13.8678" y1="38.913" x2="30.6841" y2="10.3877" gradientUnits="userSpaceOnUse">
<stop stop-color="#F2FF53" stop-opacity="0"/>
<stop offset="1" stop-color="#F2FF53"/>
</linearGradient>
<linearGradient id="paint3_linear_3030_3107" x1="36.9123" y1="5.28052" x2="4.27631" y2="5.28052" gradientUnits="userSpaceOnUse">
<stop stop-color="#F2FF53" stop-opacity="0"/>
<stop offset="1" stop-color="#F2FF53"/>
</linearGradient>
</defs>
</svg>
