<svg width="43" height="44" viewBox="0 0 43 44" fill="none" xmlns="http://www.w3.org/2000/svg">
<path d="M37.0137 43.8909L42.7872 33.8909L31.2402 33.8909L37.0137 43.8909ZM0.0136719 1.39575L0.0273425 2.39566L28.918 2.00067L28.9043 1.00076L28.8906 0.000856341L1.27777e-06 0.395845L0.0136719 1.39575ZM37.0137 9.00001L36.0137 9.00002L36.0137 34.8909L37.0137 34.8909L38.0137 34.8909L38.0137 9.00002L37.0137 9.00001ZM28.9043 1.00076L28.918 2.00067C32.821 1.94731 36.0137 5.0966 36.0137 9.00002L37.0137 9.00001L38.0137 9.00002C38.0137 3.98133 33.9088 -0.067752 28.8906 0.000856341L28.9043 1.00076Z" fill="#D7DEE9"/>
</svg>
