<svg width="43" height="45" viewBox="0 0 43 45" fill="none" xmlns="http://www.w3.org/2000/svg">
<path d="M5.77389 44.4949L11.5472 34.4948L0.000173795 34.495L5.77389 44.4949ZM13.6663 1.38864L13.6797 2.38855L42.7863 1.99982L42.773 0.999912L42.7596 1.32168e-06L13.653 0.388725L13.6663 1.38864ZM5.77315 9.38809L4.77315 9.38811L4.7737 35.4949L5.7737 35.4949L6.7737 35.4949L6.77315 9.38807L5.77315 9.38809ZM13.6663 1.38864L13.653 0.388725C8.72963 0.454477 4.77304 4.46435 4.77315 9.38811L5.77315 9.38809L6.77315 9.38807C6.77306 5.55848 9.85041 2.43969 13.6797 2.38855L13.6663 1.38864Z" fill="#D7DEE9"/>
</svg>
