<svg width="16" height="16" viewBox="0 0 16 16" fill="none" xmlns="http://www.w3.org/2000/svg">
<path d="M2.6665 12.6667V6.00002C2.6665 4.58553 3.22841 3.22898 4.2286 2.22878C5.2288 1.22859 6.58535 0.666687 7.99984 0.666687C9.41433 0.666687 10.7709 1.22859 11.7711 2.22878C12.7713 3.22898 13.3332 4.58553 13.3332 6.00002V12.6667M0.666504 12.6667H15.3332M9.99984 12.6667V13.3334C9.99984 13.8638 9.78912 14.3725 9.41405 14.7476C9.03898 15.1226 8.53027 15.3334 7.99984 15.3334C7.4694 15.3334 6.9607 15.1226 6.58562 14.7476C6.21055 14.3725 5.99984 13.8638 5.99984 13.3334V12.6667" stroke="white" stroke-width="1.33333"/>
</svg>
