<svg width="16" height="16" viewBox="0 0 16 16" fill="none" xmlns="http://www.w3.org/2000/svg">
<path d="M10.875 2C10.039 2 9.246 2.33 8.656 2.922L7.922 3.656C7.6295 3.94674 7.39744 4.29249 7.23919 4.67334C7.08095 5.05419 6.99966 5.46259 7 5.875C7 6.2715 7.076 6.658 7.219 7.0155L8.031 6.203C7.97857 5.87074 8.00502 5.53081 8.1082 5.21066C8.21139 4.89051 8.38842 4.59911 8.625 4.36L9.3595 3.6255C9.5586 3.42674 9.79493 3.26919 10.055 3.16186C10.315 3.05453 10.5937 2.99953 10.875 3C11.4435 3 11.9725 3.2225 12.375 3.625C12.7737 4.02549 12.9976 4.56762 12.9976 5.13275C12.9976 5.69789 12.7737 6.24001 12.375 6.6405L11.6405 7.375C11.4414 7.57367 11.205 7.73113 10.945 7.83837C10.6849 7.94561 10.4063 8.00054 10.125 8C10.0137 7.99934 9.90433 7.98884 9.797 7.9685L8.9845 8.7815C9.34751 8.92552 9.73447 8.99966 10.125 9C10.961 9 11.754 8.67 12.344 8.078L13.078 7.344C13.3705 7.05327 13.6026 6.70751 13.7608 6.32666C13.9191 5.94582 14.0003 5.53741 14 5.125C14 4.289 13.67 3.5135 13.078 2.922C12.7905 2.62962 12.4476 2.39749 12.0693 2.23918C11.6911 2.08087 11.2851 1.99956 10.875 2ZM9.6405 5.6405L5.6405 9.6405L6.3595 10.3595L10.3595 6.3595L9.6405 5.6405ZM5.875 7C5.039 7 4.246 7.33 3.656 7.922L2.922 8.6565C2.62956 8.94718 2.39753 9.29285 2.23929 9.67361C2.08105 10.0544 1.99972 10.4627 2 10.875C2 11.711 2.33 12.4865 2.922 13.078C3.2095 13.3704 3.55241 13.6025 3.93067 13.7608C4.30893 13.9191 4.71495 14.0004 5.125 14C5.961 14 6.754 13.67 7.344 13.078L8.078 12.344C8.3705 12.0533 8.60257 11.7075 8.76081 11.3267C8.91905 10.9458 9.00034 10.5374 9 10.125C9 9.7285 8.924 9.342 8.781 8.9845L7.9685 9.797C8.02108 10.1293 7.99475 10.4693 7.89165 10.7895C7.78855 11.1098 7.61157 11.4013 7.375 11.6405L6.6405 12.375C6.44136 12.5737 6.20501 12.7311 5.94497 12.8384C5.68493 12.9456 5.40629 13.0005 5.125 13C4.84599 13.0007 4.56964 12.9458 4.3121 12.8385C4.05455 12.7312 3.82097 12.5736 3.625 12.375C3.22627 11.9745 3.00242 11.4324 3.00242 10.8673C3.00242 10.3021 3.22627 9.75999 3.625 9.3595L4.3595 8.625C4.55864 8.42634 4.79499 8.26888 5.05503 8.16163C5.31508 8.05439 5.59371 7.99947 5.875 8C5.98633 8.00067 6.09567 8.01117 6.203 8.0315L7.0155 7.219C6.65252 7.07481 6.26557 7.0005 5.875 7Z" fill="white"/>
</svg>
