<svg width="16" height="16" viewBox="0 0 16 16" fill="none" xmlns="http://www.w3.org/2000/svg">
<path d="M12.2366 4.35998H10.9433V3.12665C10.9439 2.7732 10.8401 2.42745 10.6449 2.13282C10.4496 1.83819 10.1717 1.60782 9.84595 1.47065C9.6295 1.38087 9.39761 1.33422 9.16328 1.33331H3.79661C3.56199 1.33419 3.32983 1.38127 3.11339 1.47186C2.89696 1.56246 2.70049 1.6948 2.5352 1.86133C2.36991 2.02785 2.23904 2.22531 2.15006 2.44241C2.06108 2.65951 2.01574 2.89202 2.01661 3.12665V9.85331C2.01574 10.0879 2.06108 10.3204 2.15006 10.5375C2.23904 10.7547 2.36991 10.9521 2.5352 11.1186C2.70049 11.2852 2.89696 11.4175 3.11339 11.5081C3.32983 11.5987 3.56199 11.6458 3.79661 11.6466H5.08995V12.88C5.08994 13.3527 5.27727 13.8061 5.61089 14.141C5.94452 14.4759 6.39725 14.6649 6.86995 14.6666H12.2033C12.676 14.6649 13.1287 14.4759 13.4623 14.141C13.796 13.8061 13.9833 13.3527 13.9833 12.88V6.15331C13.9834 5.68567 13.8009 5.23646 13.4746 4.90145C13.1483 4.56645 12.7041 4.37215 12.2366 4.35998ZM5.08995 6.15331V10.6466H3.79661C3.69331 10.6458 3.59118 10.6246 3.49607 10.5842C3.40096 10.5439 3.31473 10.4852 3.2423 10.4115C3.16987 10.3379 3.11266 10.2506 3.07394 10.1549C3.03521 10.0591 3.01573 9.95662 3.01661 9.85331V3.12665C3.01573 3.02334 3.03521 2.92087 3.07394 2.82509C3.11266 2.72931 3.16987 2.6421 3.2423 2.56843C3.31473 2.49476 3.40096 2.43608 3.49607 2.39574C3.59118 2.3554 3.69331 2.33418 3.79661 2.33331H9.16328C9.26659 2.33418 9.36871 2.3554 9.46382 2.39574C9.55893 2.43608 9.64516 2.49476 9.71759 2.56843C9.79002 2.6421 9.84723 2.72931 9.88596 2.82509C9.92468 2.92087 9.94416 3.02334 9.94328 3.12665V4.35998H6.86995C6.39664 4.3635 5.94392 4.55399 5.61048 4.88993C5.27704 5.22586 5.08993 5.67999 5.08995 6.15331Z" fill="#262626"/>
</svg>
