<svg width="16" height="16" viewBox="0 0 16 16" fill="none" xmlns="http://www.w3.org/2000/svg">
<path d="M7.33317 7.33331H5.33317M9.33317 4.66665H5.33317M2.6665 12.4306V5.36931C2.6665 3.46665 2.6665 2.51598 3.2525 1.92465C3.83784 1.33331 4.78117 1.33331 6.6665 1.33331H9.33317C11.2185 1.33331 12.1618 1.33331 12.7472 1.92465C13.3332 2.51531 13.3332 3.46665 13.3332 5.36931V12.4306C13.3332 13.438 13.3332 13.942 13.0252 14.1406C12.5218 14.4646 11.7438 13.7846 11.3525 13.538C11.0292 13.334 10.8678 13.2326 10.6878 13.2266C10.4945 13.22 10.3298 13.318 9.9805 13.538L8.7065 14.3413C8.3625 14.558 8.19117 14.6666 7.99984 14.6666C7.8085 14.6666 7.63717 14.558 7.29317 14.3413L6.01984 13.538C5.69584 13.334 5.5345 13.2326 5.35517 13.2266C5.16117 13.22 4.9965 13.318 4.64717 13.538C4.25584 13.7846 3.47784 14.4646 2.97384 14.1406C2.6665 13.942 2.6665 13.4386 2.6665 12.4306Z" stroke="white" stroke-linecap="round" stroke-linejoin="round"/>
</svg>
