<svg width="16" height="16" viewBox="0 0 16 16" fill="none" xmlns="http://www.w3.org/2000/svg">
<path opacity="0.5" fill-rule="evenodd" clip-rule="evenodd" d="M6.10883 2.51669C6.14853 2.64311 6.13643 2.78012 6.07518 2.89763C6.01393 3.01513 5.90854 3.10351 5.78216 3.14336C4.63691 3.50391 3.63651 4.22034 2.92638 5.18848C2.21624 6.15663 1.8334 7.32603 1.8335 8.52669C1.83341 9.2674 1.97923 10.0009 2.26262 10.6852C2.54602 11.3696 2.96145 11.9914 3.48518 12.5152C4.00891 13.039 4.63069 13.4545 5.31501 13.738C5.99933 14.0215 6.73278 14.1674 7.4735 14.1674C8.67408 14.1675 9.84342 13.7848 10.8116 13.0747C11.7797 12.3647 12.4962 11.3645 12.8568 10.2194C12.8748 10.1547 12.9056 10.0943 12.9473 10.0418C12.9891 9.98934 13.041 9.94578 13.1 9.91376C13.1589 9.88174 13.2237 9.86192 13.2905 9.85546C13.3573 9.84901 13.4247 9.85607 13.4887 9.8762C13.5527 9.89634 13.612 9.92916 13.663 9.97269C13.7141 10.0162 13.7558 10.0696 13.7858 10.1296C13.8158 10.1896 13.8334 10.255 13.8376 10.322C13.8418 10.389 13.8325 10.4561 13.8102 10.5194C12.9648 13.2127 10.4482 15.1674 7.47416 15.1674C3.80683 15.1674 0.833496 12.194 0.833496 8.52736C0.833496 5.55269 2.78816 3.03669 5.48216 2.19003C5.60867 2.15035 5.74576 2.16255 5.86328 2.22393C5.98079 2.28532 6.06912 2.3902 6.10883 2.51669Z" fill="#F2FF54"/>
<path d="M14.6088 6.63136C14.2581 5.38189 13.5919 4.24364 12.6742 3.32598C11.7565 2.40832 10.6183 1.74211 9.36883 1.39136C8.27283 1.08536 7.3335 2.03602 7.3335 3.17336V7.63602C7.3335 8.20469 7.79483 8.66602 8.3635 8.66602H12.8262C13.9642 8.66602 14.9148 7.72669 14.6088 6.63136Z" fill="#F2FF54"/>
</svg>
