<svg xmlns="http://www.w3.org/2000/svg">
    <symbol id="bell" width="16" height="16" viewBox="0 0 16 16" fill="none">
        <path d="M2.6665 12.6667V6.00002C2.6665 4.58553 3.22841 3.22898 4.2286 2.22878C5.2288 1.22859 6.58535 0.666687 7.99984 0.666687C9.41433 0.666687 10.7709 1.22859 11.7711 2.22878C12.7713 3.22898 13.3332 4.58553 13.3332 6.00002V12.6667M0.666504 12.6667H15.3332M9.99984 12.6667V13.3334C9.99984 13.8638 9.78912 14.3725 9.41405 14.7476C9.03898 15.1226 8.53027 15.3334 7.99984 15.3334C7.4694 15.3334 6.9607 15.1226 6.58562 14.7476C6.21055 14.3725 5.99984 13.8638 5.99984 13.3334V12.6667"
              stroke="currentColor" stroke-width="1.33333"/>
    </symbol>

    <symbol id="part" width="16" height="16" viewBox="0 0 16 16" fill="none">
        <path opacity="0.5" fill-rule="evenodd" clip-rule="evenodd"
              d="M6.10883 2.51669C6.14853 2.64311 6.13643 2.78012 6.07518 2.89763C6.01393 3.01513 5.90854 3.10351 5.78216 3.14336C4.63691 3.50391 3.63651 4.22034 2.92638 5.18848C2.21624 6.15663 1.8334 7.32603 1.8335 8.52669C1.83341 9.2674 1.97923 10.0009 2.26262 10.6852C2.54602 11.3696 2.96145 11.9914 3.48518 12.5152C4.00891 13.039 4.63069 13.4545 5.31501 13.738C5.99933 14.0215 6.73278 14.1674 7.4735 14.1674C8.67408 14.1675 9.84342 13.7848 10.8116 13.0747C11.7797 12.3647 12.4962 11.3645 12.8568 10.2194C12.8748 10.1547 12.9056 10.0943 12.9473 10.0418C12.9891 9.98934 13.041 9.94578 13.1 9.91376C13.1589 9.88174 13.2237 9.86192 13.2905 9.85546C13.3573 9.84901 13.4247 9.85607 13.4887 9.8762C13.5527 9.89634 13.612 9.92916 13.663 9.97269C13.7141 10.0162 13.7558 10.0696 13.7858 10.1296C13.8158 10.1896 13.8334 10.255 13.8376 10.322C13.8418 10.389 13.8325 10.4561 13.8102 10.5194C12.9648 13.2127 10.4482 15.1674 7.47416 15.1674C3.80683 15.1674 0.833496 12.194 0.833496 8.52736C0.833496 5.55269 2.78816 3.03669 5.48216 2.19003C5.60867 2.15035 5.74576 2.16255 5.86328 2.22393C5.98079 2.28532 6.06912 2.3902 6.10883 2.51669Z"
              fill="currentColor"/>
        <path d="M14.6088 6.63136C14.2581 5.38189 13.5919 4.24364 12.6742 3.32598C11.7565 2.40832 10.6183 1.74211 9.36883 1.39136C8.27283 1.08536 7.3335 2.03602 7.3335 3.17336V7.63602C7.3335 8.20469 7.79483 8.66602 8.3635 8.66602H12.8262C13.9642 8.66602 14.9148 7.72669 14.6088 6.63136Z"
              fill="currentColor"/>
    </symbol>

    <symbol id="chain" width="16" height="16" viewBox="0 0 16 16" fill="none">
        <path d="M10.875 2C10.039 2 9.246 2.33 8.656 2.922L7.922 3.656C7.6295 3.94674 7.39744 4.29249 7.23919 4.67334C7.08095 5.05419 6.99966 5.46259 7 5.875C7 6.2715 7.076 6.658 7.219 7.0155L8.031 6.203C7.97857 5.87074 8.00502 5.53081 8.1082 5.21066C8.21139 4.89051 8.38842 4.59911 8.625 4.36L9.3595 3.6255C9.5586 3.42674 9.79493 3.26919 10.055 3.16186C10.315 3.05453 10.5937 2.99953 10.875 3C11.4435 3 11.9725 3.2225 12.375 3.625C12.7737 4.02549 12.9976 4.56762 12.9976 5.13275C12.9976 5.69789 12.7737 6.24001 12.375 6.6405L11.6405 7.375C11.4414 7.57367 11.205 7.73113 10.945 7.83837C10.6849 7.94561 10.4063 8.00054 10.125 8C10.0137 7.99934 9.90433 7.98884 9.797 7.9685L8.9845 8.7815C9.34751 8.92552 9.73447 8.99966 10.125 9C10.961 9 11.754 8.67 12.344 8.078L13.078 7.344C13.3705 7.05327 13.6026 6.70751 13.7608 6.32666C13.9191 5.94582 14.0003 5.53741 14 5.125C14 4.289 13.67 3.5135 13.078 2.922C12.7905 2.62962 12.4476 2.39749 12.0693 2.23918C11.6911 2.08087 11.2851 1.99956 10.875 2ZM9.6405 5.6405L5.6405 9.6405L6.3595 10.3595L10.3595 6.3595L9.6405 5.6405ZM5.875 7C5.039 7 4.246 7.33 3.656 7.922L2.922 8.6565C2.62956 8.94718 2.39753 9.29285 2.23929 9.67361C2.08105 10.0544 1.99972 10.4627 2 10.875C2 11.711 2.33 12.4865 2.922 13.078C3.2095 13.3704 3.55241 13.6025 3.93067 13.7608C4.30893 13.9191 4.71495 14.0004 5.125 14C5.961 14 6.754 13.67 7.344 13.078L8.078 12.344C8.3705 12.0533 8.60257 11.7075 8.76081 11.3267C8.91905 10.9458 9.00034 10.5374 9 10.125C9 9.7285 8.924 9.342 8.781 8.9845L7.9685 9.797C8.02108 10.1293 7.99475 10.4693 7.89165 10.7895C7.78855 11.1098 7.61157 11.4013 7.375 11.6405L6.6405 12.375C6.44136 12.5737 6.20501 12.7311 5.94497 12.8384C5.68493 12.9456 5.40629 13.0005 5.125 13C4.84599 13.0007 4.56964 12.9458 4.3121 12.8385C4.05455 12.7312 3.82097 12.5736 3.625 12.375C3.22627 11.9745 3.00242 11.4324 3.00242 10.8673C3.00242 10.3021 3.22627 9.75999 3.625 9.3595L4.3595 8.625C4.55864 8.42634 4.79499 8.26888 5.05503 8.16163C5.31508 8.05439 5.59371 7.99947 5.875 8C5.98633 8.00067 6.09567 8.01117 6.203 8.0315L7.0155 7.219C6.65252 7.07481 6.26557 7.0005 5.875 7Z"
              fill="currentColor"/>
    </symbol>

    <symbol id="list" width="16" height="16" viewBox="0 0 16 16" fill="none">
        <path d="M7.33317 7.33331H5.33317M9.33317 4.66665H5.33317M2.6665 12.4306V5.36931C2.6665 3.46665 2.6665 2.51598 3.2525 1.92465C3.83784 1.33331 4.78117 1.33331 6.6665 1.33331H9.33317C11.2185 1.33331 12.1618 1.33331 12.7472 1.92465C13.3332 2.51531 13.3332 3.46665 13.3332 5.36931V12.4306C13.3332 13.438 13.3332 13.942 13.0252 14.1406C12.5218 14.4646 11.7438 13.7846 11.3525 13.538C11.0292 13.334 10.8678 13.2326 10.6878 13.2266C10.4945 13.22 10.3298 13.318 9.9805 13.538L8.7065 14.3413C8.3625 14.558 8.19117 14.6666 7.99984 14.6666C7.8085 14.6666 7.63717 14.558 7.29317 14.3413L6.01984 13.538C5.69584 13.334 5.5345 13.2326 5.35517 13.2266C5.16117 13.22 4.9965 13.318 4.64717 13.538C4.25584 13.7846 3.47784 14.4646 2.97384 14.1406C2.6665 13.942 2.6665 13.4386 2.6665 12.4306Z"
              stroke="currentColor" stroke-linecap="round" stroke-linejoin="round"/>
    </symbol>

    <symbol id="return" width="15" height="8" viewBox="0 0 15 8" fill="none">
        <path d="M2.6665 6.66669C2.6665 4.23369 4.03417 2.13902 5.99984 1.19735C6.72795 0.847653 7.52543 0.666284 8.33317 0.666688C11.4628 0.666688 13.9998 3.35302 13.9998 6.66669"
              stroke="currentColor" stroke-width="1.33333" stroke-linecap="round" stroke-linejoin="round"/>
        <path d="M5.33317 5L2.6665 6.66667L0.666504 4" stroke="currentColor" stroke-width="1.33333"
              stroke-linecap="round" stroke-linejoin="round"/>
    </symbol>

    <symbol id="arrow-right" width="12" height="24" viewBox="0 0 12 24" fill="none">
        <g opacity="0.3">
            <path d="M2.45199 6.57999L3.51299 5.51999L9.29199 11.297C9.38514 11.3896 9.45907 11.4996 9.50952 11.6209C9.55997 11.7421 9.58594 11.8722 9.58594 12.0035C9.58594 12.1348 9.55997 12.2648 9.50952 12.3861C9.45907 12.5073 9.38514 12.6174 9.29199 12.71L3.51299 18.49L2.45299 17.43L7.87699 12.005L2.45199 6.57999Z"
                  fill="currentColor"/>
        </g>
    </symbol>

    <symbol id="plus" width="14" height="14" viewBox="0 0 14 14" fill="none">
        <path d="M14 8H8V14H6V8H0V6H6V0H8V6H14V8Z" fill="currentColor"/>
    </symbol>

    <symbol id="copy" width="16" height="16" viewBox="0 0 16 16" fill="none">
        <path d="M12.2366 4.35998H10.9433V3.12665C10.9439 2.7732 10.8401 2.42745 10.6449 2.13282C10.4496 1.83819 10.1717 1.60782 9.84595 1.47065C9.6295 1.38087 9.39761 1.33422 9.16328 1.33331H3.79661C3.56199 1.33419 3.32983 1.38127 3.11339 1.47186C2.89696 1.56246 2.70049 1.6948 2.5352 1.86133C2.36991 2.02785 2.23904 2.22531 2.15006 2.44241C2.06108 2.65951 2.01574 2.89202 2.01661 3.12665V9.85331C2.01574 10.0879 2.06108 10.3204 2.15006 10.5375C2.23904 10.7547 2.36991 10.9521 2.5352 11.1186C2.70049 11.2852 2.89696 11.4175 3.11339 11.5081C3.32983 11.5987 3.56199 11.6458 3.79661 11.6466H5.08995V12.88C5.08994 13.3527 5.27727 13.8061 5.61089 14.141C5.94452 14.4759 6.39725 14.6649 6.86995 14.6666H12.2033C12.676 14.6649 13.1287 14.4759 13.4623 14.141C13.796 13.8061 13.9833 13.3527 13.9833 12.88V6.15331C13.9834 5.68567 13.8009 5.23646 13.4746 4.90145C13.1483 4.56645 12.7041 4.37215 12.2366 4.35998ZM5.08995 6.15331V10.6466H3.79661C3.69331 10.6458 3.59118 10.6246 3.49607 10.5842C3.40096 10.5439 3.31473 10.4852 3.2423 10.4115C3.16987 10.3379 3.11266 10.2506 3.07394 10.1549C3.03521 10.0591 3.01573 9.95662 3.01661 9.85331V3.12665C3.01573 3.02334 3.03521 2.92087 3.07394 2.82509C3.11266 2.72931 3.16987 2.6421 3.2423 2.56843C3.31473 2.49476 3.40096 2.43608 3.49607 2.39574C3.59118 2.3554 3.69331 2.33418 3.79661 2.33331H9.16328C9.26659 2.33418 9.36871 2.3554 9.46382 2.39574C9.55893 2.43608 9.64516 2.49476 9.71759 2.56843C9.79002 2.6421 9.84723 2.72931 9.88596 2.82509C9.92468 2.92087 9.94416 3.02334 9.94328 3.12665V4.35998H6.86995C6.39664 4.3635 5.94392 4.55399 5.61048 4.88993C5.27704 5.22586 5.08993 5.67999 5.08995 6.15331Z"
              fill="#262626"/>
    </symbol>

    <symbol id="arrow-left" width="16" height="16" viewBox="0 0 16 16" fill="none">
        <path d="M13.9996 7.33333H4.27563L7.8043 3.80467L6.86163 2.862L1.72363 8L6.86163 13.138L7.8043 12.1953L4.27563 8.66667H13.9996V7.33333Z"
              fill="currentColor"/>
    </symbol>

    <symbol id="search" width="16" height="16" viewBox="0 0 16 16" fill="none">
        <g opacity="0.45">
            <path d="M13.9998 14L11.1064 11.1067" stroke="currentColor" stroke-opacity="0.5" stroke-width="1.33333" stroke-linecap="round" stroke-linejoin="round"/>
            <path d="M7.33333 12.6667C10.2789 12.6667 12.6667 10.2789 12.6667 7.33333C12.6667 4.38781 10.2789 2 7.33333 2C4.38781 2 2 4.38781 2 7.33333C2 10.2789 4.38781 12.6667 7.33333 12.6667Z" stroke="currentColor" stroke-opacity="0.5" stroke-width="1.33333" stroke-linecap="round" stroke-linejoin="round"/>
        </g>
    </symbol>

    <symbol id="cross" width="16" height="16" viewBox="0 0 16 16" fill="none">
        <path d="M3.33301 3.33325L7.99967 7.99992M7.99967 7.99992L12.6663 12.6666M7.99967 7.99992L12.6663 3.33325M7.99967 7.99992L3.33301 12.6666" stroke="currentColor" stroke-width="1.33" stroke-linecap="round"/>
    </symbol>

    <symbol id="arrow-down" width="16" height="16" viewBox="0 0 16 16" fill="none">
        <path d="M11.3337 6.66667L8.00033 10L4.66699 6.66667" stroke="currentColor" stroke-linecap="round" stroke-linejoin="round"/>
    </symbol>

    <symbol id="arrow-top" width="12" height="50" viewBox="0 0 12 50" fill="none">
        <path d="M5.77344 0L-6.70751e-05 10L11.5469 10L5.77344 0ZM5.77344 50L6.77344 50L6.77344 9L5.77344 9L4.77344 9L4.77344 50L5.77344 50Z" fill="#D7DEE9"/>
    </symbol>

    <symbol id="download" width="16" height="16" viewBox="0 0 16 16" fill="none">
        <g opacity="0.7">
            <path d="M7.99996 10.6667L4.66663 7.33335L5.59996 6.36669L7.33329 8.10002V2.66669H8.66663V8.10002L10.4 6.36669L11.3333 7.33335L7.99996 10.6667ZM2.66663 13.3334V10H3.99996V12H12V10H13.3333V13.3334H2.66663Z" fill="currentColor"/>
        </g>
    </symbol>

    <symbol id="arrow-left-bottom" width="43" height="45" viewBox="0 0 43 45" fill="none">
        <path d="M5.77389 44.4949L11.5472 34.4948L0.000173795 34.495L5.77389 44.4949ZM13.6663 1.38864L13.6797 2.38855L42.7863 1.99982L42.773 0.999912L42.7596 1.32168e-06L13.653 0.388725L13.6663 1.38864ZM5.77315 9.38809L4.77315 9.38811L4.7737 35.4949L5.7737 35.4949L6.7737 35.4949L6.77315 9.38807L5.77315 9.38809ZM13.6663 1.38864L13.653 0.388725C8.72963 0.454477 4.77304 4.46435 4.77315 9.38811L5.77315 9.38809L6.77315 9.38807C6.77306 5.55848 9.85041 2.43969 13.6797 2.38855L13.6663 1.38864Z" fill="#D7DEE9"/>
    </symbol>

    <symbol id="arrow-right-bottom" width="43" height="44" viewBox="0 0 43 44" fill="none" >
        <path d="M37.0137 43.8909L42.7872 33.8909L31.2402 33.8909L37.0137 43.8909ZM0.0136719 1.39575L0.0273425 2.39566L28.918 2.00067L28.9043 1.00076L28.8906 0.000856341L1.27777e-06 0.395845L0.0136719 1.39575ZM37.0137 9.00001L36.0137 9.00002L36.0137 34.8909L37.0137 34.8909L38.0137 34.8909L38.0137 9.00002L37.0137 9.00001ZM28.9043 1.00076L28.918 2.00067C32.821 1.94731 36.0137 5.0966 36.0137 9.00002L37.0137 9.00001L38.0137 9.00002C38.0137 3.98133 33.9088 -0.067752 28.8906 0.000856341L28.9043 1.00076Z" fill="#D7DEE9"/>
    </symbol>
</svg>